<svg viewBox="0 0 330 200" xmlns="http://www.w3.org/2000/svg"><g><g><g><g><g><line x1="63.96500110626221" y1="176.69999980926514" x2="58.96500110626221" y2="176.69999980926514" style="visibility: inherit;" fill="rgb(0, 0, 0)" stroke="rgb(204, 204, 204)" stroke-width="1px"></line><line x1="63.96500110626221" y1="161.9749998251597" x2="58.96500110626221" y2="161.9749998251597" style="visibility: inherit;" fill="rgb(0, 0, 0)" stroke="rgb(204, 204, 204)" stroke-width="1px"></line><line x1="63.96500110626221" y1="147.24999984105426" x2="58.96500110626221" y2="147.24999984105426" style="visibility: inherit;" fill="rgb(0, 0, 0)" stroke="rgb(204, 204, 204)" stroke-width="1px"></line><line x1="63.96500110626221" y1="132.52499985694885" x2="58.96500110626221" y2="132.52499985694885" style="visibility: inherit;" fill="rgb(0, 0, 0)" stroke="rgb(204, 204, 204)" stroke-width="1px"></line><line x1="63.96500110626221" y1="117.79999987284342" x2="58.96500110626221" y2="117.79999987284342" style="visibility: inherit;" fill="rgb(0, 0, 0)" stroke="rgb(204, 204, 204)" stroke-width="1px"></line><line x1="63.96500110626221" y1="103.07499988873799" x2="58.96500110626221" y2="103.07499988873799" style="visibility: inherit;" fill="rgb(0, 0, 0)" stroke="rgb(204, 204, 204)" stroke-width="1px"></line><line x1="63.96500110626221" y1="88.34999990463255" x2="58.96500110626221" y2="88.34999990463255" style="visibility: inherit;" fill="rgb(0, 0, 0)" stroke="rgb(204, 204, 204)" stroke-width="1px"></line><line x1="63.96500110626221" y1="73.62499992052716" x2="58.96500110626221" y2="73.62499992052716" style="visibility: inherit;" fill="rgb(0, 0, 0)" stroke="rgb(204, 204, 204)" stroke-width="1px"></line><line x1="63.96500110626221" y1="58.89999993642169" x2="58.96500110626221" y2="58.89999993642169" style="visibility: inherit;" fill="rgb(0, 0, 0)" stroke="rgb(204, 204, 204)" stroke-width="1px"></line><line x1="63.96500110626221" y1="44.174999952316284" x2="58.96500110626221" y2="44.174999952316284" style="visibility: inherit;" fill="rgb(0, 0, 0)" stroke="rgb(204, 204, 204)" stroke-width="1px"></line><line x1="63.96500110626221" y1="29.449999968210875" x2="58.96500110626221" y2="29.449999968210875" style="visibility: inherit;" fill="rgb(0, 0, 0)" stroke="rgb(204, 204, 204)" stroke-width="1px"></line><line x1="63.96500110626221" y1="14.72499998410541" x2="58.96500110626221" y2="14.72499998410541" style="visibility: inherit;" fill="rgb(0, 0, 0)" stroke="rgb(204, 204, 204)" stroke-width="1px"></line><line x1="63.96500110626221" y1="0" x2="58.96500110626221" y2="0" style="visibility: inherit;" fill="rgb(0, 0, 0)" stroke="rgb(204, 204, 204)" stroke-width="1px"></line></g><g transform="translate(53.96500110626221, 0)"><text style="text-anchor: end; visibility: hidden; font-family: &quot;Helvetica Neue&quot;, sans-serif; font-size: 12px; font-weight: 200;" x="0" y="176.69999980926514" dx="0em" dy="0.3em" fill="rgb(50, 49, 63)" stroke="none" stroke-width="1px">-0.02</text><text style="text-anchor: end; visibility: inherit; font-family: &quot;Helvetica Neue&quot;, sans-serif; font-size: 12px; font-weight: 200;" x="0" y="161.9749998251597" dx="0em" dy="0.3em" fill="rgb(50, 49, 63)" stroke="none" stroke-width="1px">0</text><text style="text-anchor: end; visibility: hidden; font-family: &quot;Helvetica Neue&quot;, sans-serif; font-size: 12px; font-weight: 200;" x="0" y="147.24999984105426" dx="0em" dy="0.3em" fill="rgb(50, 49, 63)" stroke="none" stroke-width="1px">0.02</text><text style="text-anchor: end; visibility: inherit; font-family: &quot;Helvetica Neue&quot;, sans-serif; font-size: 12px; font-weight: 200;" x="0" y="132.52499985694885" dx="0em" dy="0.3em" fill="rgb(50, 49, 63)" stroke="none" stroke-width="1px">0.04</text><text style="text-anchor: end; visibility: hidden; font-family: &quot;Helvetica Neue&quot;, sans-serif; font-size: 12px; font-weight: 200;" x="0" y="117.79999987284342" dx="0em" dy="0.3em" fill="rgb(50, 49, 63)" stroke="none" stroke-width="1px">0.06</text><text style="text-anchor: end; visibility: inherit; font-family: &quot;Helvetica Neue&quot;, sans-serif; font-size: 12px; font-weight: 200;" x="0" y="103.07499988873799" dx="0em" dy="0.3em" fill="rgb(50, 49, 63)" stroke="none" stroke-width="1px">0.08</text><text style="text-anchor: end; visibility: hidden; font-family: &quot;Helvetica Neue&quot;, sans-serif; font-size: 12px; font-weight: 200;" x="0" y="88.34999990463255" dx="0em" dy="0.3em" fill="rgb(50, 49, 63)" stroke="none" stroke-width="1px">0.1</text><text style="text-anchor: end; visibility: inherit; font-family: &quot;Helvetica Neue&quot;, sans-serif; font-size: 12px; font-weight: 200;" x="0" y="73.62499992052716" dx="0em" dy="0.3em" fill="rgb(50, 49, 63)" stroke="none" stroke-width="1px">0.12</text><text style="text-anchor: end; visibility: hidden; font-family: &quot;Helvetica Neue&quot;, sans-serif; font-size: 12px; font-weight: 200;" x="0" y="58.89999993642169" dx="0em" dy="0.3em" fill="rgb(50, 49, 63)" stroke="none" stroke-width="1px">0.14</text><text style="text-anchor: end; visibility: inherit; font-family: &quot;Helvetica Neue&quot;, sans-serif; font-size: 12px; font-weight: 200;" x="0" y="44.174999952316284" dx="0em" dy="0.3em" fill="rgb(50, 49, 63)" stroke="none" stroke-width="1px">0.16</text><text style="text-anchor: end; visibility: hidden; font-family: &quot;Helvetica Neue&quot;, sans-serif; font-size: 12px; font-weight: 200;" x="0" y="29.449999968210875" dx="0em" dy="0.3em" fill="rgb(50, 49, 63)" stroke="none" stroke-width="1px">0.18</text><text style="text-anchor: end; visibility: inherit; font-family: &quot;Helvetica Neue&quot;, sans-serif; font-size: 12px; font-weight: 200;" x="0" y="14.72499998410541" dx="0em" dy="0.3em" fill="rgb(50, 49, 63)" stroke="none" stroke-width="1px">0.2</text><text style="text-anchor: end; visibility: hidden; font-family: &quot;Helvetica Neue&quot;, sans-serif; font-size: 12px; font-weight: 200;" x="0" y="0" dx="0em" dy="0.3em" fill="rgb(50, 49, 63)" stroke="none" stroke-width="1px">0.22</text></g><line x1="63.96500110626221" y1="0" x2="63.96500110626221" y2="176.69999980926514" fill="rgb(0, 0, 0)" stroke="rgb(204, 204, 204)" stroke-width="1px"></line></g></g><g transform="translate(63, 0)" clip-path="url(#clip_0)"><clipPath id="clip_0"><rect width="266" height="176"></rect></clipPath><g><g><g><line x1="0" y1="0" x2="0" y2="176.69999980926514" fill="rgb(0, 0, 0)" stroke="rgb(60, 60, 60)" stroke-width="1px" opacity="0.25"></line><line x1="24.18499989943071" y1="0" x2="24.18499989943071" y2="176.69999980926514" fill="rgb(0, 0, 0)" stroke="rgb(60, 60, 60)" stroke-width="1px" opacity="0.25"></line><line x1="48.36999979886142" y1="0" x2="48.36999979886142" y2="176.69999980926514" fill="rgb(0, 0, 0)" stroke="rgb(60, 60, 60)" stroke-width="1px" opacity="0.25"></line><line x1="72.55499969829212" y1="0" x2="72.55499969829212" y2="176.69999980926514" fill="rgb(0, 0, 0)" stroke="rgb(60, 60, 60)" stroke-width="1px" opacity="0.25"></line><line x1="96.73999959772284" y1="0" x2="96.73999959772284" y2="176.69999980926514" fill="rgb(0, 0, 0)" stroke="rgb(60, 60, 60)" stroke-width="1px" opacity="0.25"></line><line x1="120.92499949715354" y1="0" x2="120.92499949715354" y2="176.69999980926514" fill="rgb(0, 0, 0)" stroke="rgb(60, 60, 60)" stroke-width="1px" opacity="0.25"></line><line x1="145.10999939658424" y1="0" x2="145.10999939658424" y2="176.69999980926514" fill="rgb(0, 0, 0)" stroke="rgb(60, 60, 60)" stroke-width="1px" opacity="0.25"></line><line x1="169.29499929601496" y1="0" x2="169.29499929601496" y2="176.69999980926514" fill="rgb(0, 0, 0)" stroke="rgb(60, 60, 60)" stroke-width="1px" opacity="0.25"></line><line x1="193.47999919544569" y1="0" x2="193.47999919544569" y2="176.69999980926514" fill="rgb(0, 0, 0)" stroke="rgb(60, 60, 60)" stroke-width="1px" opacity="0.25"></line><line x1="217.66499909487638" y1="0" x2="217.66499909487638" y2="176.69999980926514" fill="rgb(0, 0, 0)" stroke="rgb(60, 60, 60)" stroke-width="1px" opacity="0.25"></line><line x1="241.84999899430707" y1="0" x2="241.84999899430707" y2="176.69999980926514" fill="rgb(0, 0, 0)" stroke="rgb(60, 60, 60)" stroke-width="1px" opacity="0.25"></line><line x1="266.0349988937378" y1="0" x2="266.0349988937378" y2="176.69999980926514" fill="rgb(0, 0, 0)" stroke="rgb(60, 60, 60)" stroke-width="1px" opacity="0.25"></line></g><g><line x1="0" y1="176.69999980926514" x2="266.0349988937378" y2="176.69999980926514" fill="rgb(0, 0, 0)" stroke="rgb(60, 60, 60)" stroke-width="1px" opacity="0.25"></line><line x1="0" y1="161.9749998251597" x2="266.0349988937378" y2="161.9749998251597" fill="rgb(0, 0, 0)" stroke="rgb(60, 60, 60)" stroke-width="1px" opacity="0.25"></line><line x1="0" y1="147.24999984105426" x2="266.0349988937378" y2="147.24999984105426" fill="rgb(0, 0, 0)" stroke="rgb(60, 60, 60)" stroke-width="1px" opacity="0.25"></line><line x1="0" y1="132.52499985694885" x2="266.0349988937378" y2="132.52499985694885" fill="rgb(0, 0, 0)" stroke="rgb(60, 60, 60)" stroke-width="1px" opacity="0.25"></line><line x1="0" y1="117.79999987284342" x2="266.0349988937378" y2="117.79999987284342" fill="rgb(0, 0, 0)" stroke="rgb(60, 60, 60)" stroke-width="1px" opacity="0.25"></line><line x1="0" y1="103.07499988873799" x2="266.0349988937378" y2="103.07499988873799" fill="rgb(0, 0, 0)" stroke="rgb(60, 60, 60)" stroke-width="1px" opacity="0.25"></line><line x1="0" y1="88.34999990463255" x2="266.0349988937378" y2="88.34999990463255" fill="rgb(0, 0, 0)" stroke="rgb(60, 60, 60)" stroke-width="1px" opacity="0.25"></line><line x1="0" y1="73.62499992052716" x2="266.0349988937378" y2="73.62499992052716" fill="rgb(0, 0, 0)" stroke="rgb(60, 60, 60)" stroke-width="1px" opacity="0.25"></line><line x1="0" y1="58.89999993642169" x2="266.0349988937378" y2="58.89999993642169" fill="rgb(0, 0, 0)" stroke="rgb(60, 60, 60)" stroke-width="1px" opacity="0.25"></line><line x1="0" y1="44.174999952316284" x2="266.0349988937378" y2="44.174999952316284" fill="rgb(0, 0, 0)" stroke="rgb(60, 60, 60)" stroke-width="1px" opacity="0.25"></line><line x1="0" y1="29.449999968210875" x2="266.0349988937378" y2="29.449999968210875" fill="rgb(0, 0, 0)" stroke="rgb(60, 60, 60)" stroke-width="1px" opacity="0.25"></line><line x1="0" y1="14.72499998410541" x2="266.0349988937378" y2="14.72499998410541" fill="rgb(0, 0, 0)" stroke="rgb(60, 60, 60)" stroke-width="1px" opacity="0.25"></line><line x1="0" y1="0" x2="266.0349988937378" y2="0" fill="rgb(0, 0, 0)" stroke="rgb(60, 60, 60)" stroke-width="1px" opacity="0.25"></line></g></g></g><g><g><line x1="0" y1="161.9749998251597" x2="266.0349988937378" y2="161.9749998251597" fill="rgb(0, 0, 0)" stroke="rgb(153, 153, 153)" stroke-width="1.5px"></line></g></g><g><g><line x1="24.18499989943071" y1="0" x2="24.18499989943071" y2="176.69999980926514" fill="rgb(0, 0, 0)" stroke="rgb(153, 153, 153)" stroke-width="1.5px"></line></g></g><g><g><g><g><g><path style="fill: none;" stroke="rgb(255, 112, 67)" stroke-width="2px" d="M36.011464850252324,-5.853669985665135L36.49516484824094,8.331895906402991L36.978864846229555,17.026097485767593L37.462564844218164,26.590768106982523L37.94626484220679,31.248044874734802L38.429964840195396,27.999129817420595L38.91366483818401,26.173739521556996L39.39736483617262,18.22748752702975L39.881064834161236,25.213877290096917L40.36476483214985,29.661343034017563L40.84846483013847,40.8294343122879L41.332164828127084,52.122766149230586L41.81586482611569,59.84775730903968L42.29956482410431,66.3842947213219L42.78326482209292,63.13924877116055L43.26696482008154,61.3665721994124L43.750664818070156,61.95661886686386L44.234364816058765,66.54643647139238L44.71806481404738,62.887794680893805L45.20176481203599,68.94613318314205L45.685464810024605,70.44227083833388L46.16916480801323,68.82213754502946L46.65286480600184,73.86386262696116L46.870529805096716,75.87884269227165L47.354229803085325,84.07238094059586L47.83792980107394,84.37409175323702L48.32162979906255,88.43508185651193L48.80532979705117,92.07210099006714L49.28902979503979,89.41161451442748L49.7727297930284,85.72418331912833L50.25642979101701,88.30664531674475L50.74012978900562,86.92568660047465L51.223829786994244,87.23759021820948L51.70752978498286,85.90837933943988L52.19122978297147,84.9859231100683L52.674929780960085,88.41540422185403L53.15862977894869,77.28606460877981L53.64232977693731,81.28057247570469L54.126029774925925,82.60080130040943L54.60972977291454,85.72114978057395L55.09342977090316,89.24525910585612L55.577129768891766,88.30917206748825L56.06082976688038,89.96251170493018L56.544529764869,95.0651933060294L57.02822976285761,101.73484773390639L57.51192976084622,104.58281987314326L57.99562975883484,100.76290926656287L58.21329475792972,91.8873307373644L58.696994755918325,93.46004503650362L59.18069475390695,88.21682951154926L59.66439475189556,91.79954579739915L60.14809474988417,94.1821541573572L60.63179474787279,97.85369083260699L61.1154947458614,93.56590684327276L61.59919474385001,96.01903274000341L62.08289474183863,91.57591952433613L62.566594739827245,86.46125542066551L63.050294737815854,89.12375161355979L63.53399473580447,90.94822099018302L64.01769473379309,94.10761206880487L64.5013947317817,98.01592654116604L64.98509472977031,99.27515251632076L65.46879472775892,94.73886346240143L65.95249472574754,99.64293905384524L66.43619472373615,96.64959970568434L66.91989472172477,101.38725569535549L67.40359471971338,100.0910058529058L67.88729471770199,103.30664757380958L68.37099471569061,102.77393201444008L68.85469471367924,105.55727222241258L69.33839471166783,104.02508936930415L69.55605971076271,104.73368142577027L70.03975970875133,107.83497037473133L70.52345970673994,109.20117062942256L71.00715970472856,107.2155582745223L71.49085970271717,103.38705189764924L71.97455970070578,100.94524076846929L72.4582596986944,99.80773729424017L72.94195969668301,93.40879327727572L73.42565969467164,93.4215512623021L73.90935969266025,94.6436620411623L74.39305969064885,96.62475682349796L74.87675968863748,98.37261094278999L75.36045968662609,101.44068248046787L75.84415968461471,102.9969000917916L76.32785968260332,102.27777828542695L76.81155968059193,105.52488018026365L77.29525967858055,100.58676907493465L77.77895967656916,97.30900476425002L78.26265967455777,102.04975024342652L78.74635967254638,102.6606912667101L79.230059670535,103.48567637895563L79.71375966852362,105.29930302830184L80.19745966651223,106.54929771335371L80.68115966450084,104.66692152740237L80.89882466359572,106.85176710890546L81.38252466158433,106.65148842996857L81.86622465957295,108.26070898821077L82.34992465756157,98.67601062856899L82.83362465555017,97.12963924463725L83.31732465353879,101.96887036762513L83.8010246515274,108.52989320205236L84.28472464951602,108.1558196843243L84.76842464750465,111.76702143495893L85.25212464549324,113.1372464202105L85.73582464348186,111.36673270620109L86.21952464147047,110.8272869387237L86.7032246394591,111.42409712004991L87.1869246374477,115.65722647919483L87.67062463543631,113.49610118828264L88.15432463342493,116.02000376571146L88.63802463141354,114.44679582127465L89.12172462940217,112.84393431173505L89.60542462739078,111.36421019137445L90.08912462537938,111.22250232476819L90.572824623368,107.66614107032588L91.05652462135662,112.65581329724807L91.54022461934524,112.29322345314054L92.02392461733385,113.78944044558813L92.24158961642873,108.70454384627455L92.72528961441733,108.62795110516001L93.20898961240596,109.21035042643747L93.69268961039457,114.62128202496811L94.17638960838318,115.24958344622897L94.66008960637178,116.0262428023755L95.1437896043604,111.69149925635871L95.62748960234903,113.78043220698203L96.11118960033762,114.70857741066214L96.59488959832625,117.03122035804105L97.07858959631486,119.12280658458906L97.56228959430348,116.7309625223267L98.0459895922921,120.54170899791518L98.5296895902807,121.3091204748703L99.01338958826932,123.78633068477049L99.49708958625793,127.26269370201072L99.98078958424655,123.08787545823145L100.46448958223517,118.24298757825099L100.94818958022377,115.89220097669715L101.43188957821239,112.6598966809304L101.915589576201,111.78868675467652L102.39928957418962,104.65997283995368L102.88298957217825,105.89369081655207L103.36668957016684,109.42046793989407L103.58435456926172,112.98457891091988L104.06805456725034,116.30561973607902L104.55175456523895,116.89607204534428L105.03545456322757,119.21930136775258L105.51915456121618,120.11118906778165L106.00285455920479,120.85961375115183L106.48655455719341,125.35865567978524L106.97025455518202,127.21265315797763L107.45395455317063,130.1494089256638L107.93765455115926,120.41869690834184L108.42135454914786,124.0312683970246L108.90505454713649,128.3203564319753L109.3887545451251,127.64315547746881L109.8724545431137,125.73643646318072L110.35615454110231,126.92283123659269L110.83985453909094,127.34021231473521L111.32355453707956,124.8728453276901L111.80725453506817,124.74884952509048L112.29095453305678,125.62983142129941L112.77465453104539,120.62749673448641L113.25835452903401,122.940126534637L113.74205452702263,116.95729077056811L114.22575452501123,119.26924678316762L114.70945452299985,117.44999712362394L114.92711952209473,116.1227681583243L115.41081952008334,118.22942512243677L115.89451951807196,113.11949596794031L116.37821951606057,116.17910796763181L116.86191951404918,110.58756565308025L117.3456195120378,114.12198497768L117.82931951002641,114.66364150888859L118.31301950801503,118.93140439049945L118.79671950600364,118.79563115156235L119.28041950399225,122.29114038665449L119.76411950198087,122.27263428874889L120.24781949996948,125.12651784186843L120.7315194979581,128.5898668211338L121.21521949594671,119.32162178901419L121.69891949393532,122.68041716220839L122.18261949192394,117.75502970324793L122.66631948991255,120.24641715522745L123.15001948790118,123.02445382919672L123.63371948588977,125.4037518140777L124.1174194838784,124.46313021680575L124.60111948186702,127.38970754277173L125.08481947985562,120.63891069200841L125.56851947784423,125.16171369563091L126.05221947583284,126.515538931849L126.26988447492772,130.17629817154375L126.75358447291634,132.85497087116528L127.23728447090497,130.30842408115268L127.72098446889356,125.86646135039857L128.20468446688218,127.82595591371756L128.6883844648708,131.34362858055425L129.17208446285943,131.4288260014836L129.65578446084803,132.16195440281325L130.13948445883665,127.68035674466235L130.62318445682524,126.36020471899869L131.10688445481387,124.79160659207324L131.5905844528025,128.7578819038477L132.0742844507911,127.57345481486917L132.5579844487797,126.64574605190191L133.04168444676833,127.65903703576708L133.52538444475692,128.3249164976022L134.00908444274555,129.03576591521534L134.49278444073417,131.90444193810194L134.9764844387228,132.17072617019323L135.4601844367114,134.96509963930976L135.9438844347,135.69166632652374L136.42758443268863,132.66682507829395L136.91128443067726,129.79750911803768L137.39498442866588,130.95944049305112L137.61264942776072,130.93469205747124L138.09634942574934,132.6875280458171L138.58004942373796,135.61790869758613L139.06374942172656,136.73800457681216L139.54744941971518,137.81517820960136L140.0311494177038,135.4317818672011L140.51484941569242,135.29107835818206L140.99854941368105,136.52754432101338L141.48224941166964,138.60269041208056L141.96594940965826,140.8917775883118L142.44964940764686,141.04274432723773L142.93334940563548,142.81177789119528L143.4170494036241,143.1792416265239L143.9007494016127,143.7723012555817L144.38444939960132,145.7418113174965L144.86814939758995,144.9682401269518L145.35184939557857,144.06973441598706L145.8355493935672,142.39956425329217L146.3192493915558,144.0136183381535L146.80294938954438,144.81270187291597L147.286649387533,145.47589586524168L147.77034938552163,146.05017801384167L148.25404938351025,145.43321469057102L148.73774938149884,147.0095233142355L148.95541438059374,141.57771912907066L149.43911437858236,142.06203144222567L149.92281437657095,136.8434154121678L150.40651437455958,136.77672765154207L150.8902143725482,135.70517926640107L151.3739143705368,136.01746564688548L151.85761436852542,138.05235681737076L152.341314366514,140.3755262556295L152.82501436450264,139.33619453833802L153.30871436249126,139.7601854131942L153.79241436047988,136.8594076965485L154.2761143584685,134.01058314341824L154.7598143564571,135.54188993582244L155.24351435444572,134.28835396300042L155.72721435243432,136.90282415142985L156.21091435042294,137.1611088688578L156.69461434841156,139.9973715348366L157.17831434640016,139.92719787019044L157.66201434438878,140.23678674925355L158.1457143423774,139.49760621315983L158.62941434036603,139.29620008800953L159.11311433835465,141.50521102727362L159.59681433634324,139.73245307460888L160.08051433433187,138.8541635086104L160.29817933342673,141.07486031208003L160.78187933141533,141.04175433042028L161.26557932940395,143.3056319267773L161.74927932739257,144.04496478712187L162.2329793253812,142.8275078930447L162.71667932336982,142.38481052720107L163.20037932135844,144.59131542278175L163.68407931934703,145.62070386585913L164.16777931733566,146.9132262565659L164.65147931532428,146.8317510691985L165.13517931331288,147.10218282359358L165.61887931130147,147.47548534097052L166.1025793092901,148.52692974699812L166.58627930727872,143.63169819235026L167.06997930526734,145.7231016811153L167.55367930325596,147.10640443337613L168.03737930124456,148.64825013400767L168.52107929923318,145.1654458203711L169.0047792972218,143.66186285274694L169.4884792952104,144.05041249924602L169.97217929319902,145.60196377688118L170.4558792911876,146.41011416740463L170.93957928917624,147.15746276766572L171.42327928716486,148.69341258830164L171.64094428625975,150.01183339256926L172.12464428424835,151.01892824715523L172.60834428223697,152.0864994797312L173.0920442802256,149.71966281974136L173.57574427821422,148.0752538730983L174.0594442762028,148.57901455121595L174.5431442741914,148.96074359269588L175.02684427218003,148.8046637924627L175.51054427016865,146.89866487924644L175.99424426815727,147.75866541968577L176.4779442661459,145.66936007933478L176.9616442641345,146.44034881798254L177.44534426212311,148.21022371194323L177.92904426011174,149.13777645903227L178.41274425810033,149.26894581336944L178.89644425608893,146.87679202627987L179.38014425407755,146.63653067998516L179.86384425206617,146.69168813962142L180.3475442500548,147.05766834694418L180.83124424804342,147.7905874825337L181.314944246032,148.9965896750216L181.79864424402064,148.77955498693686L182.28234424200926,146.30285344065845L182.76604423999788,145.08381385274149L182.98370923909272,145.33546191283833L183.46740923708134,141.82931109227775L183.95110923506996,143.43576924848986L184.4348092330586,145.05410536128224L184.9185092310472,144.2673591536926L185.4022092290358,144.28308094476236L185.88590922702443,143.0312351835956L186.36960922501305,141.83729030943869L186.85330922300167,143.6414961550938L187.33700922099027,143.4576126764236L187.82070921897886,144.08365889112005L188.30440921696749,144.42752709029708L188.7881092149561,146.11869542334918L189.27180921294473,147.34954983929185L189.75550921093335,148.77680704466724L190.23920920892195,150.37038714015443L190.72290920691057,145.85577063682436L191.2066092048992,144.68152377439267L191.69030920288782,145.43205405500257L192.17400920087638,145.06333127339914L192.657709198865,146.6218323780829L193.14140919685363,146.65473492185382L193.62510919484225,143.24929989634643L194.10880919283088,141.84550079789184L194.32647419192574,142.2608093743657L194.81017418991436,139.86268930188186L195.293874187903,137.46971487686864L195.7775741858916,139.58044910144588L196.26127418388018,141.3215519680088L196.7449741818688,140.97350744051982L197.22867417985742,142.68096307329577L197.71237417784604,144.158359109322L198.19607417583467,139.59983091625276L198.67977417382326,137.28898407029317L199.16347417181188,139.59151849063284L199.6471741698005,141.83784299393693L200.13087416778913,143.19940245092764L200.61457416577775,141.08965771818436L201.09827416376632,142.01366802517498L201.58197416175494,143.59342234018635L202.06567415974357,145.6858505837229L202.5493741577322,144.6769115265069L203.0330741557208,145.7463369758074L203.5167741537094,145.1767730340338L204.00047415169803,146.88522810334456L204.48417414968665,146.34457530117731L204.96787414767527,145.14072116083582L205.45157414566384,146.55859452801226L205.66923914475873,147.52767606322843L206.15293914274736,147.31399387759978L206.63663914073598,148.90830888400805L207.12033913872457,150.44537200990703L207.6040391367132,149.74732404456884L208.08773913470182,150.78959567869998L208.57143913269044,150.80062148044877L209.05513913067907,151.88464551584156L209.53883912866766,152.25749957595477L210.02253912665626,152.6219194384407L210.50623912464488,151.7848963478678L210.9899391226335,152.67685314537505L211.47363912062212,153.30540175443642L211.95733911861072,151.01706773017878L212.44103911659934,151.77989192086673L212.92473911458796,150.05651594415608L213.4084391125766,149.99092899246466L213.8921391105652,150.20114982356446L214.37583910855378,151.36499301583467L214.8595391065424,149.71857812071005L215.34323910453102,149.04790644189833L215.82693910251965,145.8336530511566L216.31063910050827,147.20714512736822L216.79433909849686,148.47197424192066L217.01200409759176,149.26625732301687L217.49570409558038,150.6784177474678L217.97940409356897,151.48447171954754L218.4631040915576,149.53332638821573L218.9468040895462,150.58956772451276L219.4305040875348,149.31044325044368L219.91420408552344,150.68318113744257L220.39790408351203,151.37162067722974L220.88160408150065,149.98842616080398L221.36530407948928,150.42942702655307L221.8490040774779,147.59993692703347L222.33270407546652,148.73929676768424L222.81640407345512,148.9908178447794L223.3001040714437,146.12670433921488L223.78380406943234,147.29810877383204L224.26750406742096,148.4351571520106L224.75120406540958,143.9970683226515L225.23490406339818,139.96342983841782L225.7186040613868,138.7747127226719L226.20230405937542,140.90275255349388L226.68600405736404,140.50115314215185L227.16970405535267,142.5915649693941L227.65340405334126,144.38244671883476L228.13710405132986,146.44190730661424L228.35476905042475,147.87663419022067L228.83846904841334,148.56104806336748L229.32216904640197,145.26235329611887L229.8058690443906,145.45682812240184L230.2895690423792,145.76077686023507L230.77326904036784,146.47198679651856L231.25696903835643,144.99816046383228L231.74066903634505,146.4944621683179L232.22436903433365,144.29380703087824L232.70806903232227,145.1388480790961L233.1917690303109,145.48800628602257L233.6754690282995,146.1574536587066L234.1591690262881,147.11099629987422L234.64286902427673,148.48918522150328L235.12656902226536,149.18388587536896L235.61026902025398,150.37190399927164L236.09396901824257,150.47121054232312L236.5776690162312,150.98613190010485L237.0613690142198,146.94909032589413L237.54506901220842,146.06861728071743L238.02876901019704,147.66227600403272L238.51246900818563,146.11487921089542L238.99616900617426,144.07152426114078L239.47986900416288,145.18471956944325L239.69753400325774,146.35482656485976L240.18123400124637,147.89923263070526L240.664933999235,147.44684839110872L241.14863399722358,148.59851045820326L241.6323339952122,147.35413441410466L242.1160339932008,147.538200128558L242.59973399118942,147.3272194707908L243.08343398917805,146.36964954661443L243.56713398716667,147.93081474871454L244.0508339851553,149.1844174577314L244.5345339831439,150.15713357443215L245.0182339811325,149.98110301601636L245.50193397912113,148.78971600565123L245.98563397710973,149.2223976815401L246.46933397509835,149.0893495443849L246.95303397308695,144.58928048165095L247.43673397107557,146.21798010362443L247.9204339690642,147.540788674812L248.40413396705281,148.60527060659305L248.88783396504144,150.11005252048656L249.37153396303003,147.92006739412486L249.85523396101866,140.70325026851356L250.33893395900725,142.89322776986472L250.82263395699587,144.93124398988851" fill="none"></path></g></g></g></g><g opacity="0.2"><g><g><g><path style="fill: none;" stroke="rgb(255, 112, 67)" stroke-width="2px" d="M26.60349988937378,-42.45374184883664L27.087199887362395,12.77820837459501L27.570899885351007,-79.10598651125474L30.473099873282692,-35.5671041611366L30.956799871271308,21.339247988227044L31.44049986925992,-11.175675582743366L31.924199867248532,-10.497866501503381L32.40789986523715,22.521052915879977L32.891599863225764,65.64845769322635L33.37529986121438,94.4300884501571L33.85899985920299,10.946350944892401L34.342699857191604,81.91934247264017L34.82639985518022,10.170757519651033L35.310099853168836,21.48236442124599L35.527764852263715,-5.812994773371685L36.011464850252324,47.17372246805988L36.49516484824094,101.8117586936778L36.978864846229555,74.50089750443725L37.462564844218164,89.99424150967437L37.94626484220679,62.194683505515286L38.429964840195396,6.365857119692322L38.91366483818401,13.997193953187093L39.39736483617262,-34.86252588889883L39.881064834161236,71.95472505782038L40.36476483214985,59.45147774507679L40.84846483013847,115.7132244839196L41.332164828127084,127.91446814699445L41.81586482611569,111.73225082727087L42.29956482410431,110.3165281513149L42.78326482209292,41.31627240638559L43.26696482008154,49.43914205310746L43.750664818070156,65.92852486855078L44.234364816058765,97.45494120702811L44.71806481404738,38.24156751677114L45.20176481203599,109.76988810596409L45.685464810024605,80.52651074628126L46.16916480801323,57.899687490698625L46.65286480600184,107.86031225452854L46.870529805096716,89.46821045009787L47.354229803085325,139.33920505074985L47.83792980107394,86.40944639430302L48.32162979906255,115.83379006771887L48.80532979705117,116.61276804026468L49.28902979503979,71.45853506361848L49.7727297930284,60.839383501452886L50.25642979101701,105.73563937083779L50.74012978900562,77.60509238806893L51.223829786994244,89.34284506258486L51.70752978498286,76.93622465546139L52.19122978297147,78.75912428006166L52.674929780960085,111.56596917015693L53.15862977894869,2.1558094023739613L53.64232977693731,108.24675405112944L54.126029774925925,91.51361251839742L54.60972977291454,106.7868896374769L55.09342977090316,113.03721048998354L55.577129768891766,81.98937572294115L56.06082976688038,101.12482724263671L56.544529764869,129.5156799231543L57.02822976285761,146.76509108608155L57.51192976084622,123.81109126741035L57.99562975883484,74.972347938926L58.21329475792972,31.962480754921813L58.696994755918325,104.07852770925518L59.18069475390695,52.81608646845888L59.66439475189556,115.98915559981529L60.14809474988417,110.26899089533397L60.63179474787279,122.6431591438626L61.1154947458614,64.61558381794842L61.59919474385001,112.58212327204116L62.08289474183863,61.5767101487433L62.566594739827245,51.92777719554894L63.050294737815854,107.10057189526742L63.53399473580447,103.26681233263669L64.01769473379309,115.43945465106759L64.5013947317817,124.40444025975833L64.98509472977031,107.77731679145546L65.46879472775892,64.11028242492533L65.95249472574754,132.75480140329677L66.43619472373615,76.43883882444851L66.91989472172477,133.37550379132315L67.40359471971338,91.33883383733766L67.88729471770199,125.0184037233706L68.37099471569061,99.17707786657952L68.85469471367924,124.35017505034324L69.33839471166783,93.6799038144038L69.55605971076271,109.51804377647645L70.03975970875133,128.77465331288684L70.52345970673994,118.42565938843555L71.00715970472856,93.80884025587984L71.49085970271717,77.53723687728149L71.97455970070578,84.45829601447154L72.4582596986944,92.12738947535111L72.94195969668301,50.20354507883336L73.42565969467164,93.50769234264465L73.90935969266025,102.89527461225319L74.39305969064885,110.00098082693846L74.87675968863748,110.17400963670144L75.36045968662609,122.15610523318668L75.84415968461471,113.50438224230464L76.32785968260332,97.42231351275457L76.81155968059193,127.44910660635968L77.29525967858055,67.24495469076682L77.77895967656916,75.17774662493449L78.26265967455777,134.05896566996546L78.74635967254638,106.78572671360568L79.230059670535,109.05592416040719L79.71375966852362,117.54479666814436L80.19745966651223,114.98918369330882L80.68115966450084,91.9572350623264L80.89882466359572,121.60370816612436L81.38252466158433,105.29921927522439L81.86622465957295,119.12606594555984L82.34992465756157,33.96072406604759L82.83362465555017,86.68863589123409L83.31732465353879,134.64305789800835L83.8010246515274,152.82951142663745L84.28472464951602,105.63009854403502L84.76842464750465,136.14963125865808L85.25212464549324,122.38892039800805L85.73582464348186,99.41233407443245L86.21952464147047,107.1849826147498L86.7032246394591,115.45372241044981L87.1869246374477,144.2390531303576L87.67062463543631,98.90431736387988L88.15432463342493,133.06123732885203L88.63802463141354,103.82459340809335L89.12172462940217,102.02151285871336L89.60542462739078,101.37320474247053L90.08912462537938,110.26569960135883L90.572824623368,83.65381051361841L91.05652462135662,146.34577063404151L91.54022461934524,109.8450393183964L92.02392461733385,123.89180476666066L92.24158961642873,74.37163741905363L92.72528961441733,108.1108016679964L93.20898961240596,113.14267451992689L93.69268961039457,151.1555565681371L94.17638960838318,119.49183567325191L94.66008960637178,121.2701986048786L95.1437896043604,82.42357968061127L95.62748960234903,127.88477793259372L96.11118960033762,120.97535626235077L96.59488959832625,132.7135614897883L97.07858959631486,133.24506706834345L97.56228959430348,100.58137975244178L98.0459895922921,146.271632865879L98.5296895902807,126.49063517413474L99.01338958826932,140.51230039172108L99.49708958625793,150.73488120007727L99.98078958424655,94.8997615858993L100.46448958223517,85.53060507706158L100.94818958022377,100.01983563087353L101.43188957821239,90.83557853206912L101.915589576201,105.90633136187842L102.39928957418962,56.527338583844994L102.88298957217825,114.22367808410127L103.36668957016684,133.23304835984422L103.58435456926172,137.0492351553927L104.06805456725034,138.72908143010858L104.55175456523895,120.88276942008514L105.03545456322757,134.9056016756602L105.51915456121618,126.13315950726002L106.00285455920479,125.91293079914857L106.48655455719341,155.73590777059826L106.97025455518202,139.73072915379737L107.45395455317063,149.978201744213L107.93765455115926,54.71753282377583L108.42135454914786,148.42312705272218L108.90505454713649,157.28001285354446L109.3887545451251,123.07073662966279L109.8724545431137,112.8623879250041L110.35615454110231,134.933295171716L110.83985453909094,130.1583434702298L111.32355453707956,108.21333644630188L111.80725453506817,123.91163755560584L112.29095453305678,131.5781665499298L112.77465453104539,86.85204315160976L113.25835452903401,138.55485952627959L113.74205452702263,76.56155472031155L114.22575452501123,134.87943040306786L114.70945452299985,105.16653624410665L114.92711952209473,107.16140049341794L115.41081952008334,132.45344229869818L115.89451951807196,78.61757121168091L116.37821951606057,136.83741844613272L116.86191951404918,72.83381870759993L117.3456195120378,137.98616506855038L117.82931951002641,118.32087281650207L118.31301950801503,147.7470746996414L118.79671950600364,117.87889866230563L119.28041950399225,145.8926019662121L119.76411950198087,122.14768226335532L120.24781949996948,144.39576260749388L120.7315194979581,151.97418434778962L121.21521949594671,56.743006107055905L121.69891949393532,145.35879522461937L122.18261949192394,84.49911903074317L122.66631948991255,137.06811072634014L123.15001948790118,141.7815851704882L123.63371948588977,141.46862425462723L124.1174194838784,118.112111525149L124.60111948186702,147.14977615452324L125.08481947985562,75.05794900972941L125.56851947784423,155.69939909217902L126.05221947583284,135.65648296863822L126.26988447492772,154.89351753413146L126.75358447291634,150.94120281977126L127.23728447090497,113.11429808037124L127.72098446889356,95.87460446290558L128.20468446688218,141.056341686204L128.6883844648708,155.0947362767915L129.17208446285943,132.00407370403758L129.65578446084803,137.11199190326366L130.13948445883665,97.42088728536535L130.62318445682524,117.44662011161095L131.10688445481387,114.20052931647612L131.5905844528025,155.53792683838626L132.0742844507911,119.57627656292907L132.5579844487797,120.38191401667348L133.04168444676833,134.50071491907357L133.52538444475692,132.82089332906253L134.00908444274555,133.8353770992544L134.49278444073417,151.27356454224318L134.9764844387228,133.9686607915226L135.4601844367114,153.83253600830585L135.9438844347,140.59739954019327L136.42758443268863,112.24328455730065L136.91128443067726,110.42406569646259L137.39498442866588,138.80472907938213L137.61264942776072,130.76759215522267L138.09634942574934,144.52256793612102L138.58004942373796,155.40365712929798L139.06374942172656,144.300822490036L139.54744941971518,145.08818777672846L140.0311494177038,119.3392375708396L140.51484941569242,134.3410569910846L140.99854941368105,144.87608582199064L141.48224941166964,152.61394812773574L141.96594940965826,156.34755224333054L142.44964940764686,142.06206238618705L142.93334940563548,154.75618280752886L143.4170494036241,145.66033397901413L143.9007494016127,147.77660309208835L144.38444939960132,159.0398211153863L144.86814939758995,139.74513542180105L145.35184939557857,138.0030795768376L145.8355493935672,131.12267889122043L146.3192493915558,154.9116114227598L146.80294938954438,150.2080643440642L147.286649387533,149.95374057311528L147.77034938552163,149.92769546679204L148.25404938351025,141.26751659313885L148.73774938149884,157.65266138564456L148.95541438059374,104.902514126911L149.43911437858236,145.33207814577617L149.92281437657095,101.60764361231963L150.40651437455958,136.3264560274724L150.8902143725482,128.47015102254198L151.3739143705368,138.12600392131907L151.85761436852542,151.79181580568593L152.341314366514,156.0614222302294L152.82501436450264,132.31869123786606L153.30871436249126,142.62294550621527L153.79241436047988,117.27353644694838L154.2761143584685,114.77549643197295L154.7598143564571,145.8811784333734L155.24351435444572,125.82455681317111L155.72721435243432,154.55556472601927L156.21091435042294,138.90503126327448L156.69461434841156,159.14764116326688L157.17831434640016,139.45338963835482L157.66201434438878,142.32711166137744L158.1457143423774,134.50670507410834L158.62941434036603,137.9363184212969L159.11311433835465,156.4203158962584L159.59681433634324,127.76290131669435L160.08051433433187,132.92400682655864L160.29817933342673,156.06886741147565L160.78187933141533,140.8182247953377L161.26557932940395,158.59119306187014L161.74927932739257,149.0368944100684L162.2329793253812,134.60731444543836L162.71667932336982,139.39574536712524L163.20037932135844,159.48949964022955L163.68407931934703,152.57107079547464L164.16777931733566,155.64025728219076L164.65147931532428,146.28163565681845L165.13517931331288,148.92812125830756L165.61887931130147,149.99600078775606L166.1025793092901,155.62621717064184L166.58627930727872,110.57939831561924L167.06997930526734,159.8441283378158L167.55367930325596,156.44637883042404L168.03737930124456,159.05869668633375L168.52107929923318,121.64976708256145L169.0047792972218,133.509763900804L169.4884792952104,146.67387561630557L169.97217929319902,156.07794178323962L170.4558792911876,151.8666954863653L170.93957928917624,152.20351416942856L171.42327928716486,159.0640505245333L171.64094428625975,158.91372890045378L172.12464428424835,157.81877024982484L172.60834428223697,159.2946742361162L173.0920442802256,133.73892847205792L173.57574427821422,136.9723066442138L174.0594442762028,151.9803754088941L174.5431442741914,151.53815440764953L175.02684427218003,147.7508226606556L175.51054427016865,134.0294784186932L175.99424426815727,153.56533573536547L176.4779442661459,131.56249999060813L176.9616442641345,151.64601696807728L177.44534426212311,160.16030923628244L177.92904426011174,155.40055508472642L178.41274425810033,150.1545931593206L178.89644425608893,130.7251180064735L179.38014425407755,145.01430096973158L179.86384425206617,147.06410788646787L180.3475442500548,149.5287440103406L180.83124424804342,152.73921203368454L181.314944246032,157.1394416878663L181.79864424402064,147.3141502325041L182.28234424200926,129.58031819408103L182.76604423999788,136.85293415448052L182.98370923909272,147.03457400853097L183.46740923708134,118.15599818756249L183.95110923506996,154.28247509392213L184.4348092330586,155.9810104329268L184.9185092310472,138.95529755050978L185.4022092290358,144.3892335030707L185.88590922702443,134.57885023804337L186.36960922501305,133.77584856222404L186.85330922300167,155.8233821362225L187.33700922099027,142.21604283206892L187.82070921897886,148.31068410817903L188.30440921696749,146.74930384598082L188.7881092149561,157.53735912946053L189.27180921294473,155.6602025236801L189.75550921093335,158.41355918328694L190.23920920892195,161.13014111821155L190.72290920691057,115.37335998255685L191.2066092048992,136.75308178076477L191.69030920288782,150.4995879651671L192.17400920087638,142.573737918542L192.657709198865,157.14473518567632L193.14140919685363,146.87689085692705L193.62510919484225,120.25601379388951L194.10880919283088,132.36713634243512L194.32647419192574,145.06494712714652L194.81017418991436,123.67073129309557L195.293874187903,121.31249996069407L195.7775741858916,153.83199568754492L196.26127418388018,153.07737054767017L196.7449741818688,138.62353237507085L197.22867417985742,154.2095976170776L197.71237417784604,154.13364552311134L198.19607417583467,108.82093125607226L198.67977417382326,121.68628947470556L199.16347417181188,155.13808810393402L199.6471741698005,157.0048867333002L200.13087416778913,152.392567466733L200.61457416577775,126.84479211958453L201.09827416376632,148.25252831501084L201.58197416175494,154.2598255058832L202.06567415974357,159.8137963210899L202.5493741577322,137.8646175820485L203.0330741557208,152.96703128852616L203.5167741537094,141.33111262097347L204.00047415169803,158.42061078062866L204.48417414968665,142.69412110980016L204.96787414767527,137.01237266287114L205.45157414566384,156.13198757305636L205.66923914475873,154.07085449092816L206.15293914274736,145.8712250118436L206.63663914073598,159.67302493502825L207.12033913872457,160.82352691423264L207.6040391367132,145.03414747240168L208.08773913470182,157.82694911535305L208.57143913269044,150.87506701008581L209.05513913067907,159.20390857651682L209.53883912866766,154.7749870671068L210.02253912665626,155.08245975026423L210.50623912464488,146.13336834872842L210.9899391226335,158.6992901269936L211.47363912062212,157.54932298306016L211.95733911861072,135.56637831057884L212.44103911659934,156.9304335494651L212.92473911458796,138.42038822543537L213.4084391125766,149.548089962052L213.8921391105652,151.62054783819966L214.37583910855378,159.22319007372118L214.8595391065424,138.60208685207786L215.34323910453102,144.51957285860365L215.82693910251965,124.13121349041222L216.31063910050827,156.48087844814592L216.79433909849686,157.0120219843638L217.01200409759176,154.629207428713L217.49570409558038,160.21323735752011L217.97940409356897,156.9268981511868L218.4631040915576,136.3593141123242L218.9468040895462,157.72124372385153L219.4305040875348,140.67387412707808L219.91420408552344,159.9518222194273L220.39790408351203,156.01992175594788L220.88160408150065,140.6491825654021L221.36530407948928,153.40703752319996L221.8490040774779,128.4953952473313L222.33270407546652,156.43218375378376L222.81640407345512,150.68907255911952L223.3001040714437,126.78838756908559L223.78380406943234,155.20735887113077L224.26750406742096,156.11243728684406L224.75120406540958,114.03136777713392L225.23490406339818,112.72855294099506L225.7186040613868,130.74856847604636L226.20230405937542,155.27114551974145L226.68600405736404,137.78957882216034L227.16970405535267,156.7058959889912L227.65340405334126,156.47436922862386L228.13710405132986,160.34725747681526L228.35476905042475,157.56382113302064L228.83846904841334,153.18216809058356L229.32216904640197,122.98977079787439L229.8058690443906,146.76991008901015L230.2895690423792,147.81301988855077L230.77326904036784,151.27403218026214L231.25696903835643,135.04697646561726L231.74066903634505,156.59739848310076L232.22436903433365,129.43512001762284L232.70806903232227,150.84451283101663L233.1917690303109,147.8455008459679L233.6754690282995,150.67752080295304L234.1591690262881,153.54925707861065L234.64286902427673,157.79463135126218L235.12656902226536,153.87446160805914L235.61026902025398,158.39332869631977L236.09396901824257,151.14172216246158L236.5776690162312,154.46284897473961L237.0613690142198,119.6912359759907L237.54506901220842,140.12371788266384L238.02876901019704,158.42256087230894L238.51246900818563,135.66695202622412L238.99616900617426,130.2749183600842L239.47986900416288,152.7009452557336L239.69753400325774,154.25531643313727L240.18123400124637,158.32696661017354L240.664933999235,144.39237806018943L241.14863399722358,156.37446131432228L241.6323339952122,138.9521845349583L242.1160339932008,148.78100041761888L242.59973399118942,145.9026911536184L243.08343398917805,139.90419680275704L243.56713398716667,158.47170537684772L244.0508339851553,157.64866520620976L244.5345339831439,156.72485247091552L245.0182339811325,148.7925556022166L245.50193397912113,140.7455447961317L245.98563397710973,152.14383752416936L246.46933397509835,148.19101677336047L246.95303397308695,114.20509324412164L247.43673397107557,157.21485894656163L247.9204339690642,156.47231011283066L248.40413396705281,155.7925865955951L248.88783396504144,160.27024668328698L249.37153396303003,133.13342363396177L249.85523396101866,91.97574859093656L250.33893395900725,157.67982004642943L250.82263395699587,158.6918031188864" fill="none"></path></g></g></g></g></g></g><g transform="translate(63, 176)" clip-path="url(#clip_1)"><clipPath id="clip_1"><rect width="266" height="23"></rect></clipPath><g><g><line x1="0" y1="0" x2="0" y2="5" style="visibility: inherit;" fill="rgb(0, 0, 0)" stroke="rgb(204, 204, 204)" stroke-width="1px"></line><line x1="24.18499989943071" y1="0" x2="24.18499989943071" y2="5" style="visibility: inherit;" fill="rgb(0, 0, 0)" stroke="rgb(204, 204, 204)" stroke-width="1px"></line><line x1="48.36999979886142" y1="0" x2="48.36999979886142" y2="5" style="visibility: inherit;" fill="rgb(0, 0, 0)" stroke="rgb(204, 204, 204)" stroke-width="1px"></line><line x1="72.55499969829212" y1="0" x2="72.55499969829212" y2="5" style="visibility: inherit;" fill="rgb(0, 0, 0)" stroke="rgb(204, 204, 204)" stroke-width="1px"></line><line x1="96.73999959772284" y1="0" x2="96.73999959772284" y2="5" style="visibility: inherit;" fill="rgb(0, 0, 0)" stroke="rgb(204, 204, 204)" stroke-width="1px"></line><line x1="120.92499949715354" y1="0" x2="120.92499949715354" y2="5" style="visibility: inherit;" fill="rgb(0, 0, 0)" stroke="rgb(204, 204, 204)" stroke-width="1px"></line><line x1="145.10999939658424" y1="0" x2="145.10999939658424" y2="5" style="visibility: inherit;" fill="rgb(0, 0, 0)" stroke="rgb(204, 204, 204)" stroke-width="1px"></line><line x1="169.29499929601496" y1="0" x2="169.29499929601496" y2="5" style="visibility: inherit;" fill="rgb(0, 0, 0)" stroke="rgb(204, 204, 204)" stroke-width="1px"></line><line x1="193.47999919544569" y1="0" x2="193.47999919544569" y2="5" style="visibility: inherit;" fill="rgb(0, 0, 0)" stroke="rgb(204, 204, 204)" stroke-width="1px"></line><line x1="217.66499909487638" y1="0" x2="217.66499909487638" y2="5" style="visibility: inherit;" fill="rgb(0, 0, 0)" stroke="rgb(204, 204, 204)" stroke-width="1px"></line><line x1="241.84999899430707" y1="0" x2="241.84999899430707" y2="5" style="visibility: inherit;" fill="rgb(0, 0, 0)" stroke="rgb(204, 204, 204)" stroke-width="1px"></line><line x1="266.0349988937378" y1="0" x2="266.0349988937378" y2="5" style="visibility: inherit;" fill="rgb(0, 0, 0)" stroke="rgb(204, 204, 204)" stroke-width="1px"></line></g><g transform="translate(0, 8)"><text style="text-anchor: middle; visibility: hidden; font-family: &quot;Helvetica Neue&quot;, sans-serif; font-size: 12px; font-weight: 200;" x="0" y="0" dx="0em" dy="0.95em" fill="rgb(50, 49, 63)" stroke="none" stroke-width="1px">-1k</text><text style="text-anchor: middle; visibility: inherit; font-family: &quot;Helvetica Neue&quot;, sans-serif; font-size: 12px; font-weight: 200;" x="24.18499989943071" y="0" dx="0em" dy="0.95em" fill="rgb(50, 49, 63)" stroke="none" stroke-width="1px">0</text><text style="text-anchor: middle; visibility: inherit; font-family: &quot;Helvetica Neue&quot;, sans-serif; font-size: 12px; font-weight: 200;" x="48.36999979886142" y="0" dx="0em" dy="0.95em" fill="rgb(50, 49, 63)" stroke="none" stroke-width="1px">1k</text><text style="text-anchor: middle; visibility: inherit; font-family: &quot;Helvetica Neue&quot;, sans-serif; font-size: 12px; font-weight: 200;" x="72.55499969829212" y="0" dx="0em" dy="0.95em" fill="rgb(50, 49, 63)" stroke="none" stroke-width="1px">2k</text><text style="text-anchor: middle; visibility: inherit; font-family: &quot;Helvetica Neue&quot;, sans-serif; font-size: 12px; font-weight: 200;" x="96.73999959772284" y="0" dx="0em" dy="0.95em" fill="rgb(50, 49, 63)" stroke="none" stroke-width="1px">3k</text><text style="text-anchor: middle; visibility: inherit; font-family: &quot;Helvetica Neue&quot;, sans-serif; font-size: 12px; font-weight: 200;" x="120.92499949715354" y="0" dx="0em" dy="0.95em" fill="rgb(50, 49, 63)" stroke="none" stroke-width="1px">4k</text><text style="text-anchor: middle; visibility: inherit; font-family: &quot;Helvetica Neue&quot;, sans-serif; font-size: 12px; font-weight: 200;" x="145.10999939658424" y="0" dx="0em" dy="0.95em" fill="rgb(50, 49, 63)" stroke="none" stroke-width="1px">5k</text><text style="text-anchor: middle; visibility: inherit; font-family: &quot;Helvetica Neue&quot;, sans-serif; font-size: 12px; font-weight: 200;" x="169.29499929601496" y="0" dx="0em" dy="0.95em" fill="rgb(50, 49, 63)" stroke="none" stroke-width="1px">6k</text><text style="text-anchor: middle; visibility: inherit; font-family: &quot;Helvetica Neue&quot;, sans-serif; font-size: 12px; font-weight: 200;" x="193.47999919544569" y="0" dx="0em" dy="0.95em" fill="rgb(50, 49, 63)" stroke="none" stroke-width="1px">7k</text><text style="text-anchor: middle; visibility: inherit; font-family: &quot;Helvetica Neue&quot;, sans-serif; font-size: 12px; font-weight: 200;" x="217.66499909487638" y="0" dx="0em" dy="0.95em" fill="rgb(50, 49, 63)" stroke="none" stroke-width="1px">8k</text><text style="text-anchor: middle; visibility: inherit; font-family: &quot;Helvetica Neue&quot;, sans-serif; font-size: 12px; font-weight: 200;" x="241.84999899430707" y="0" dx="0em" dy="0.95em" fill="rgb(50, 49, 63)" stroke="none" stroke-width="1px">9k</text><text style="text-anchor: middle; visibility: hidden; font-family: &quot;Helvetica Neue&quot;, sans-serif; font-size: 12px; font-weight: 200;" x="266.0349988937378" y="0" dx="0em" dy="0.95em" fill="rgb(50, 49, 63)" stroke="none" stroke-width="1px">10k</text></g><line x1="0" y1="0" x2="266.0349988937378" y2="0" fill="rgb(0, 0, 0)" stroke="rgb(204, 204, 204)" stroke-width="1px"></line></g></g></g></g></svg>